<svg width="152" height="232" viewBox="0 0 152 232" fill="none" xmlns="http://www.w3.org/2000/svg">
<path fill-rule="evenodd" clip-rule="evenodd" d="M37.7515 219.529C39.6551 221.307 41.2918 222.808 42.7084 224.08C44.1249 225.352 45.3206 226.394 46.3406 227.25C47.36 228.106 48.2037 228.777 48.9163 229.307C49.6297 229.839 50.2112 230.229 50.7063 230.523C51.202 230.818 51.6112 231.016 51.9792 231.165C52.3478 231.314 52.6745 231.411 53.0045 231.503C53.6435 231.449 54.2758 231.383 54.9007 231.302C55.5257 231.222 56.1446 231.129 56.7562 231.022C57.3677 230.915 57.9727 230.796 58.5709 230.663C59.169 230.53 59.7599 230.383 60.3447 230.224C60.9296 230.065 61.507 229.892 62.0785 229.706C62.6493 229.52 63.2134 229.321 63.7708 229.108C64.3289 228.897 64.8796 228.671 65.4237 228.433C65.9677 228.194 66.5044 227.942 67.035 227.677C67.5657 227.412 68.089 227.134 68.6064 226.843C69.123 226.551 69.6337 226.247 70.1369 225.929C70.6401 225.611 71.1367 225.28 71.6266 224.935C72.1164 224.591 72.5997 224.234 73.0755 223.863C73.552 223.492 74.0219 223.109 74.4843 222.711C74.9475 222.314 75.4032 221.904 75.8523 221.48C76.3021 221.057 76.7445 220.621 77.1803 220.171C77.616 219.721 78.045 219.258 78.4667 218.781C78.9576 216.729 79.4631 214.683 79.9844 212.646C80.5056 210.609 81.042 208.579 81.5937 206.557C82.1453 204.534 82.7127 202.52 83.2953 200.513C83.8773 198.506 84.475 196.506 85.0887 194.515C85.7017 192.524 86.3305 190.54 86.9745 188.564C87.6178 186.587 88.2777 184.619 88.952 182.658C89.6262 180.696 90.3165 178.743 91.0218 176.798C91.7271 174.852 92.4477 172.914 93.1833 170.983C93.9197 169.053 94.6706 167.13 95.4373 165.215C96.204 163.3 96.9859 161.392 97.7836 159.493C98.5807 157.593 99.3936 155.701 100.222 153.816C101.05 151.932 101.893 150.055 102.752 148.185C103.611 146.316 104.485 144.455 105.374 142.601C106.263 140.747 107.168 138.901 108.088 137.062C109.009 135.223 109.944 133.392 110.895 131.568C111.846 129.746 112.812 127.93 113.794 126.122C112.904 126.131 112.024 126.162 111.155 126.215C110.286 126.268 109.427 126.343 108.579 126.438C107.731 126.534 106.894 126.651 106.067 126.789C105.24 126.928 104.423 127.089 103.617 127.27C102.811 127.451 102.015 127.655 101.23 127.879C100.445 128.104 99.6706 128.35 98.9068 128.617C98.1424 128.885 97.3889 129.174 96.6458 129.484C95.9028 129.795 95.1707 130.126 94.4483 130.48C93.7266 130.833 93.0152 131.208 92.3141 131.604C91.6131 132.001 90.9223 132.419 90.2426 132.858C89.5623 133.297 88.8929 133.758 88.2339 134.24C87.5749 134.722 86.9264 135.226 86.2884 135.751C85.6503 136.276 85.0229 136.823 84.4059 137.391C83.789 137.959 83.1825 138.549 82.5866 139.16C81.9906 139.771 81.4051 140.403 80.8302 141.057C80.2553 141.711 79.6908 142.387 79.1369 143.084L77.4248 145.945L75.7476 148.822L74.105 151.716L72.4972 154.625L70.9242 157.55L69.3859 160.492L67.8825 163.45L66.4138 166.423L66.3033 166.445L66.1928 166.467L66.0823 166.489L65.9718 166.511L65.198 166.666L65.0875 166.688L64.6454 166.776C64.4607 165.905 64.286 165.033 64.1216 164.161C63.9571 163.289 63.8029 162.416 63.6587 161.543C63.5146 160.671 63.3805 159.797 63.2566 158.924C63.1327 158.05 63.0189 157.177 62.9154 156.303C62.8118 155.428 62.7183 154.554 62.6349 153.679C62.5516 152.804 62.4784 151.929 62.4153 151.053C62.3522 150.178 62.2993 149.302 62.2565 148.425C62.2137 147.549 62.181 146.673 62.1585 145.796C62.136 144.919 62.1236 144.041 62.1213 143.164C62.1191 142.286 62.1269 141.408 62.145 140.53C62.1631 139.651 62.1911 138.773 62.2294 137.894C62.2677 137.015 62.3162 136.135 62.3747 135.256C62.4333 134.376 62.5019 133.496 62.5808 132.615C62.6596 131.735 62.7486 130.854 62.8476 129.973C62.9467 129.092 63.0559 128.21 63.1753 127.329C63.2947 126.447 63.4241 125.565 63.5637 124.682C63.9829 121.176 64.4905 117.734 65.0865 114.358C65.6823 110.981 66.367 107.669 67.1396 104.423C67.9129 101.176 68.7735 97.9944 69.7235 94.8771C70.6728 91.7606 71.7107 88.7086 72.8374 85.7213C73.964 82.734 75.1786 79.812 76.4819 76.9547C77.7852 74.0973 79.1772 71.3047 80.6571 68.5773C82.1371 65.85 83.7057 63.1873 85.3623 60.59C87.0196 57.9918 88.7648 55.4591 90.5981 52.9917C92.4321 50.5237 94.354 48.121 96.3646 45.7829C98.3753 43.4448 100.475 41.1713 102.662 38.9632C104.849 36.7552 107.125 34.6117 109.489 32.5336C111.853 30.4555 114.306 28.442 116.847 26.4932C119.388 24.5443 122.017 22.6609 124.735 20.8421C127.453 19.0232 130.259 17.2698 133.154 15.5809C136.049 13.8921 139.032 12.2678 142.103 10.709C145.175 9.1502 148.334 7.65594 151.583 6.22638C151.601 6.07181 151.613 5.92021 151.62 5.77158C151.627 5.62295 151.63 5.47665 151.626 5.33325C151.623 5.18992 151.614 5.04947 151.6 4.91138C151.587 4.77328 151.567 4.63816 151.543 4.506C151.519 4.37321 151.489 4.2433 151.454 4.11645C151.419 3.98952 151.379 3.86564 151.334 3.74402C151.289 3.6224 151.238 3.50374 151.182 3.38742C151.126 3.27174 151.065 3.15839 150.998 3.04801C150.932 2.93685 150.86 2.82945 150.784 2.7243C150.707 2.61922 150.625 2.51634 150.537 2.41713C150.45 2.31729 150.357 2.22041 150.259 2.12644C150.162 2.03183 150.058 1.9409 149.95 1.8523C149.841 1.76363 149.728 1.67722 149.609 1.59385C149.49 1.51119 149.366 1.43072 149.236 1.35259C149.107 1.27523 148.972 1.20007 148.832 1.12787C148.693 1.05497 148.547 0.985804 148.397 0.918912C147.468 0.839716 146.543 0.779964 145.623 0.738316C144.703 0.696667 143.788 0.673766 142.876 0.670372C141.966 0.6662 141.06 0.680828 140.158 0.714204C139.257 0.747579 138.36 0.799764 137.468 0.870686C136.576 0.940902 135.689 1.03064 134.806 1.13904C133.923 1.24751 133.045 1.37401 132.172 1.52003C131.298 1.66605 130.43 1.8301 129.565 2.01359C128.702 2.19645 127.842 2.39868 126.987 2.61908C126.132 2.84012 125.282 3.07927 124.437 3.33715C123.591 3.59574 122.751 3.87243 121.915 4.16786C121.079 4.46329 120.248 4.77745 119.421 5.11043C118.594 5.44341 117.772 5.7952 116.955 6.16565C116.137 6.53617 115.325 6.92551 114.516 7.33351C113.708 7.74158 112.905 8.16842 112.106 8.61332C111.308 9.05892 110.513 9.5233 109.724 10.0057C108.935 10.4889 108.15 10.9901 107.37 11.5108C105.592 12.6359 103.84 13.7847 102.114 14.9577C100.389 16.1301 98.6896 17.326 97.0171 18.5456C95.3446 19.7651 93.6978 21.009 92.0781 22.2758C90.4585 23.5425 88.8652 24.8329 87.2984 26.1468C85.7317 27.4608 84.1913 28.7984 82.6774 30.1595C81.1634 31.5207 79.6759 32.9055 78.2149 34.3139C76.7538 35.7222 75.3192 37.1542 73.911 38.6098C72.5028 40.0654 71.1217 41.5439 69.7664 43.0466C68.411 44.5494 67.0821 46.0758 65.7797 47.6258C64.4779 49.1751 63.2019 50.7487 61.9523 52.3459C60.7026 53.9431 59.4802 55.5632 58.2834 57.2076C57.0867 58.852 55.9171 60.5194 54.7732 62.211C53.6293 63.9026 52.5126 65.6171 51.4216 67.3559C50.3313 69.0941 49.2667 70.8565 48.2293 72.6418C47.1911 74.4279 46.1801 76.2368 45.1948 78.0701C44.2103 79.9026 43.2514 81.7595 42.3197 83.6392C41.9989 84.454 41.6864 85.27 41.3816 86.0881C41.0768 86.9062 40.7803 87.7255 40.4921 88.5465C40.2037 89.3675 39.9234 90.19 39.6512 91.0143C39.379 91.8384 39.1149 92.6642 38.8589 93.4915C38.6028 94.3189 38.355 95.1478 38.1152 95.9783C37.8754 96.8088 37.6437 97.6409 37.4201 98.4745C37.1965 99.3082 36.981 100.143 36.7736 100.98C36.5662 101.817 36.367 102.656 36.1758 103.496C35.9846 104.336 35.8015 105.177 35.6266 106.02C35.4515 106.863 35.2847 107.708 35.1259 108.554C34.9671 109.401 34.8164 110.249 34.6738 111.098C34.5312 111.948 34.3968 112.799 34.2703 113.652C34.144 114.504 34.0257 115.358 33.9156 116.214C33.8054 117.07 33.7034 117.928 33.6093 118.787C33.5153 119.646 33.4295 120.506 33.3517 121.368C33.274 122.231 33.2043 123.094 33.1427 123.96L33.4573 136.463L33.8611 148.944L34.3539 161.401L34.9357 173.836L33.5856 172.903L32.2546 171.946L30.943 170.965L29.6506 169.959L28.3774 168.93L27.1235 167.876L25.8889 166.797L24.6735 165.695C24.4229 165.577 24.1723 165.466 23.9217 165.363C23.6711 165.26 23.4205 165.164 23.1699 165.075C22.9193 164.987 22.6687 164.905 22.4181 164.832C22.1675 164.758 21.917 164.691 21.6664 164.632C21.4157 164.573 21.1652 164.522 20.9146 164.477C20.664 164.433 20.4134 164.396 20.1629 164.366C19.9123 164.337 19.6618 164.314 19.4112 164.3C19.1607 164.285 18.9101 164.277 18.6595 164.277C18.409 164.277 18.1585 164.284 17.9079 164.299C17.6574 164.313 17.4069 164.335 17.1563 164.365C16.9058 164.394 16.6552 164.431 16.4048 164.475C16.1542 164.519 15.9037 164.571 15.6531 164.629C15.4027 164.688 15.1521 164.755 14.9017 164.828C14.6512 164.902 14.4006 164.983 14.1501 165.071C13.8996 165.159 13.6491 165.255 13.3987 165.358C13.1481 165.461 12.8976 165.572 12.6471 165.689C12.3784 165.786 12.1114 165.885 11.8458 165.986C11.5803 166.088 11.3164 166.193 11.054 166.3C10.7918 166.407 10.5311 166.517 10.2719 166.629C10.0128 166.742 9.75522 166.857 9.49924 166.975C9.24334 167.093 8.98899 167.214 8.73627 167.338C8.48355 167.461 8.23246 167.588 7.98285 167.717C7.73324 167.846 7.48533 167.977 7.23898 168.112C6.99269 168.246 6.74789 168.383 6.50479 168.523C6.26168 168.663 6.02006 168.806 5.78014 168.951C5.54015 169.096 5.30186 169.244 5.06512 169.395C4.82845 169.546 4.5932 169.7 4.35971 169.856C4.12622 170.012 3.89429 170.171 3.66399 170.333C3.43354 170.494 3.20486 170.659 2.97774 170.826C2.75061 170.993 2.52512 171.163 2.30125 171.336C2.07731 171.508 1.85499 171.684 1.63431 171.862C1.41362 172.04 1.19456 172.221 0.977051 172.404L6.17725 178.482L11.2824 184.618L16.2921 190.812L21.2067 197.065L26.0259 203.375L30.7499 209.743L35.3787 216.169L37.6452 219.411C37.6452 219.411 35.8487 217.752 37.7515 219.529Z" fill="#007EF0"/>
</svg>
