<svg width="15" height="111" viewBox="0 0 15 111" fill="none" xmlns="http://www.w3.org/2000/svg">
<path d="M13 5.5C13 8.53757 10.5376 11 7.5 11C4.46243 11 2 8.53757 2 5.5C2 2.46243 4.46243 0 7.5 0C10.5376 0 13 2.46243 13 5.5Z" fill="#007EF0"/>
<path d="M13 29.5C13 32.5376 10.5376 35 7.5 35C4.46243 35 2 32.5376 2 29.5C2 26.4624 4.46243 24 7.5 24C10.5376 24 13 26.4624 13 29.5Z" fill="#007EF0"/>
<path d="M15 55.5C15 59.6421 11.6421 63 7.5 63C3.35786 63 0 59.6421 0 55.5C0 51.3579 3.35786 48 7.5 48C11.6421 48 15 51.3579 15 55.5Z" fill="#007EF0"/>
<path d="M13 81.5C13 84.5376 10.5376 87 7.5 87C4.46243 87 2 84.5376 2 81.5C2 78.4624 4.46243 76 7.5 76C10.5376 76 13 78.4624 13 81.5Z" fill="#007EF0"/>
<path d="M13 105.5C13 108.538 10.5376 111 7.5 111C4.46243 111 2 108.538 2 105.5C2 102.462 4.46243 100 7.5 100C10.5376 100 13 102.462 13 105.5Z" fill="#007EF0"/>
</svg>
